<svg width="204" height="142" viewBox="0 0 204 142" fill="none" xmlns="http://www.w3.org/2000/svg">
<path d="M13.7143 39.4286H20.5714V46.2857H13.7143V39.4286ZM6.85714 39.4286H13.7143V46.2857H6.85714V39.4286ZM6.85714 46.2857H13.7143V53.1429H6.85714V46.2857ZM13.7143 46.2857H20.5714V53.1429H13.7143V46.2857ZM20.5714 46.2857H27.4286V53.1429H20.5714V46.2857ZM20.5714 39.4286H27.4286V46.2857H20.5714V39.4286ZM27.4286 39.4286H34.2857V46.2857H27.4286V39.4286ZM34.2857 39.4286H41.1429V46.2857H34.2857V39.4286ZM34.2857 46.2857H41.1429V53.1429H34.2857V46.2857ZM27.4286 46.2857H34.2857V53.1429H27.4286V46.2857ZM27.4286 53.1429H34.2857V60H27.4286V53.1429ZM34.2857 53.1429H41.1429V60H34.2857V53.1429ZM41.1429 46.2857H48V53.1429H41.1429V46.2857ZM41.1429 53.1429H48V60H41.1429V53.1429ZM41.1429 60H48V66.8571H41.1429V60ZM41.1429 66.8571H48V73.7143H41.1429V66.8571ZM41.1429 73.7143H48V80.5714H41.1429V73.7143ZM41.1429 80.5714H48V87.4286H41.1429V80.5714ZM41.1429 87.4286H48V94.2857H41.1429V87.4286ZM41.1429 94.2857H48V101.143H41.1429V94.2857ZM34.2857 94.2857H41.1429V101.143H34.2857V94.2857ZM34.2857 87.4286H41.1429V94.2857H34.2857V87.4286ZM34.2857 80.5714H41.1429V87.4286H34.2857V80.5714ZM34.2857 73.7143H41.1429V80.5714H34.2857V73.7143ZM34.2857 66.8571H41.1429V73.7143H34.2857V66.8571ZM34.2857 60H41.1429V66.8571H34.2857V60ZM27.4286 87.4286H34.2857V94.2857H27.4286V87.4286ZM27.4286 94.2857H34.2857V101.143H27.4286V94.2857ZM34.2857 101.143H41.1429V108H34.2857V101.143ZM27.4286 101.143H34.2857V108H27.4286V101.143ZM20.5714 101.143H27.4286V108H20.5714V101.143ZM20.5714 94.2857H27.4286V101.143H20.5714V94.2857ZM13.7143 101.143H20.5714V108H13.7143V101.143ZM6.85714 101.143H13.7143V108H6.85714V101.143ZM6.85714 94.2857H13.7143V101.143H6.85714V94.2857ZM13.7143 94.2857H20.5714V101.143H13.7143V94.2857ZM13.7143 87.4286H20.5714V94.2857H13.7143V87.4286ZM6.85714 87.4286H13.7143V94.2857H6.85714V87.4286ZM0 94.2857H6.85714V101.143H0V94.2857ZM0 87.4286H6.85714V94.2857H0V87.4286ZM0 80.5714H6.85714V87.4286H0V80.5714ZM0 73.7143H6.85714V80.5714H0V73.7143ZM0 66.8571H6.85714V73.7143H0V66.8571ZM0 60H6.85714V66.8571H0V60ZM0 53.1429H6.85714V60H0V53.1429ZM6.85714 53.1429H13.7143V60H6.85714V53.1429ZM0 46.2857H6.85714V53.1429H0V46.2857ZM13.7143 53.1429H20.5714V60H13.7143V53.1429ZM6.85714 60H13.7143V66.8571H6.85714V60ZM6.85714 66.8571H13.7143V73.7143H6.85714V66.8571ZM6.85714 73.7143H13.7143V80.5714H6.85714V73.7143ZM6.85714 80.5714H13.7143V87.4286H6.85714V80.5714ZM99.8579 53.1429H106.715V60H99.8579V53.1429ZM93.0007 53.1429H99.8579V60H93.0007V53.1429ZM93.0007 46.2857H99.8579V53.1429H93.0007V46.2857ZM99.8579 46.2857H106.715V53.1429H99.8579V46.2857ZM93.0007 39.4286H99.8579V46.2857H93.0007V39.4286ZM86.1436 39.4286H93.0007V46.2857H86.1436V39.4286ZM86.1436 46.2857H93.0007V53.1429H86.1436V46.2857ZM79.2864 46.2857H86.1436V53.1429H79.2864V46.2857ZM72.4293 46.2857H79.2864V53.1429H72.4293V46.2857ZM72.4293 39.4286H79.2864V46.2857H72.4293V39.4286ZM65.5721 39.4286H72.4293V46.2857H65.5721V39.4286ZM79.2864 39.4286H86.1436V46.2857H79.2864V39.4286ZM65.5721 46.2857H72.4293V53.1429H65.5721V46.2857ZM58.715 46.2857H65.5721V53.1429H58.715V46.2857ZM58.715 53.1429H65.5721V60H58.715V53.1429ZM65.5721 53.1429H72.4293V60H65.5721V53.1429ZM65.5721 60H72.4293V66.8571H65.5721V60ZM65.5721 66.8571H72.4293V73.7143H65.5721V66.8571ZM58.715 66.8571H65.5721V73.7143H58.715V66.8571ZM58.715 60H65.5721V66.8571H58.715V60ZM65.5721 73.7143H72.4293V80.5714H65.5721V73.7143ZM72.4293 73.7143H79.2864V80.5714H72.4293V73.7143ZM72.4293 66.8571H79.2864V73.7143H72.4293V66.8571ZM79.2864 66.8571H86.1436V73.7143H79.2864V66.8571ZM86.1436 66.8571H93.0007V73.7143H86.1436V66.8571ZM93.0007 66.8571H99.8579V73.7143H93.0007V66.8571ZM93.0007 73.7143H99.8579V80.5714H93.0007V73.7143ZM86.1436 73.7143H93.0007V80.5714H86.1436V73.7143ZM79.2864 73.7143H86.1436V80.5714H79.2864V73.7143ZM99.8579 73.7143H106.715V80.5714H99.8579V73.7143ZM99.8579 80.5714H106.715V87.4286H99.8579V80.5714ZM93.0007 80.5714H99.8579V87.4286H93.0007V80.5714ZM86.1436 94.2857H93.0007V101.143H86.1436V94.2857ZM93.0007 94.2857H99.8579V101.143H93.0007V94.2857ZM93.0007 87.4286H99.8579V94.2857H93.0007V87.4286ZM99.8579 87.4286H106.715V94.2857H99.8579V87.4286ZM99.8579 94.2857H106.715V101.143H99.8579V94.2857ZM93.0007 101.143H99.8579V108H93.0007V101.143ZM86.1436 101.143H93.0007V108H86.1436V101.143ZM79.2864 101.143H86.1436V108H79.2864V101.143ZM72.4293 101.143H79.2864V108H72.4293V101.143ZM65.5721 101.143H72.4293V108H65.5721V101.143ZM65.5721 94.2857H72.4293V101.143H65.5721V94.2857ZM72.4293 94.2857H79.2864V101.143H72.4293V94.2857ZM79.2864 94.2857H86.1436V101.143H79.2864V94.2857ZM58.715 94.2857H65.5721V101.143H58.715V94.2857ZM58.715 87.4286H65.5721V94.2857H58.715V87.4286ZM65.5721 87.4286H72.4293V94.2857H65.5721V87.4286ZM117.43 39.4286H124.287V46.2857H117.43V39.4286ZM124.287 39.4286H131.144V46.2857H124.287V39.4286ZM124.287 46.2857H131.144V53.1429H124.287V46.2857ZM124.287 53.1429H131.144V60H124.287V53.1429ZM124.287 60H131.144V66.8571H124.287V60ZM124.287 66.8571H131.144V73.7143H124.287V66.8571ZM124.287 73.7143H131.144V80.5714H124.287V73.7143ZM117.43 73.7143H124.287V80.5714H117.43V73.7143ZM117.43 80.5714H124.287V87.4286H117.43V80.5714ZM117.43 87.4286H124.287V94.2857H117.43V87.4286ZM117.43 94.2857H124.287V101.143H117.43V94.2857ZM117.43 101.143H124.287V108H117.43V101.143ZM124.287 101.143H131.144V108H124.287V101.143ZM124.287 94.2857H131.144V101.143H124.287V94.2857ZM124.287 87.4286H131.144V94.2857H124.287V87.4286ZM124.287 80.5714H131.144V87.4286H124.287V80.5714ZM117.43 66.8571H124.287V73.7143H117.43V66.8571ZM117.43 60H124.287V66.8571H117.43V60ZM117.43 53.1429H124.287V60H117.43V53.1429ZM117.43 46.2857H124.287V53.1429H117.43V46.2857ZM155.609 53.1429H162.466V60H155.609V53.1429ZM148.752 53.1429H155.609V60H148.752V53.1429ZM148.752 60H155.609V66.8571H148.752V60ZM155.609 60H162.466V66.8571H155.609V60ZM162.466 53.1429H169.324V60H162.466V53.1429ZM169.324 53.1429H176.181V60H169.324V53.1429ZM176.181 53.1429H183.038V60H176.181V53.1429ZM176.181 60H183.038V66.8571H176.181V60ZM169.324 60H176.181V66.8571H169.324V60ZM183.038 60H189.895V66.8571H183.038V60ZM183.038 66.8571H189.895V73.7143H183.038V66.8571ZM183.038 94.2857H189.895V101.143H183.038V94.2857ZM176.181 94.2857H183.038V101.143H176.181V94.2857ZM176.181 66.8571H183.038V73.7143H176.181V66.8571ZM169.324 94.2857H176.181V101.143H169.324V94.2857ZM176.181 101.143H183.038V108H176.181V101.143ZM169.324 101.143H176.181V108H169.324V101.143ZM162.466 101.143H169.324V108H162.466V101.143ZM155.609 101.143H162.466V108H155.609V101.143ZM148.752 101.143H155.609V108H148.752V101.143ZM148.752 94.2857H155.609V101.143H148.752V94.2857ZM155.609 94.2857H162.466V101.143H155.609V94.2857ZM148.752 87.4286H155.609V94.2857H148.752V87.4286ZM141.895 94.2857H148.752V101.143H141.895V94.2857ZM141.895 87.4286H148.752V94.2857H141.895V87.4286ZM141.895 80.5714H148.752V87.4286H141.895V80.5714ZM141.895 73.7143H148.752V80.5714H141.895V73.7143ZM141.895 66.8571H148.752V73.7143H141.895V66.8571ZM141.895 60H148.752V66.8571H141.895V60ZM148.752 66.8571H155.609V73.7143H148.752V66.8571ZM148.752 73.7143H155.609V80.5714H148.752V73.7143ZM148.752 80.5714H155.609V87.4286H148.752V80.5714ZM162.466 94.2857H169.324V101.143H162.466V94.2857ZM162.466 60H169.324V66.8571H162.466V60ZM176.181 73.7143H183.038V80.5714H176.181V73.7143ZM183.038 73.7143H189.895V80.5714H183.038V73.7143ZM155.609 80.5714H162.466V87.4286H155.609V80.5714ZM162.466 80.5714H169.324V87.4286H162.466V80.5714ZM169.324 80.5714H176.181V87.4286H169.324V80.5714ZM176.181 80.5714H183.038V87.4286H176.181V80.5714ZM183.038 80.5714H189.895V87.4286H183.038V80.5714ZM169.324 73.7143H176.181V80.5714H169.324V73.7143ZM162.466 73.7143H169.324V80.5714H162.466V73.7143ZM155.609 73.7143H162.466V80.5714H155.609V73.7143Z" fill="#FF6973"/>
<path d="M20.7143 34.4286H27.5714V41.2857H20.7143V34.4286ZM13.8571 34.4286H20.7143V41.2857H13.8571V34.4286ZM13.8571 41.2857H20.7143V48.1429H13.8571V41.2857ZM20.7143 41.2857H27.5714V48.1429H20.7143V41.2857ZM27.5714 41.2857H34.4286V48.1429H27.5714V41.2857ZM27.5714 34.4286H34.4286V41.2857H27.5714V34.4286ZM34.4286 34.4286H41.2857V41.2857H34.4286V34.4286ZM41.2857 34.4286H48.1429V41.2857H41.2857V34.4286ZM41.2857 41.2857H48.1429V48.1429H41.2857V41.2857ZM34.4286 41.2857H41.2857V48.1429H34.4286V41.2857ZM34.4286 48.1429H41.2857V55H34.4286V48.1429ZM41.2857 48.1429H48.1429V55H41.2857V48.1429ZM48.1429 41.2857H55V48.1429H48.1429V41.2857ZM48.1429 48.1429H55V55H48.1429V48.1429ZM48.1429 55H55V61.8571H48.1429V55ZM48.1429 61.8571H55V68.7143H48.1429V61.8571ZM48.1429 68.7143H55V75.5714H48.1429V68.7143ZM48.1429 75.5714H55V82.4286H48.1429V75.5714ZM48.1429 82.4286H55V89.2857H48.1429V82.4286ZM48.1429 89.2857H55V96.1429H48.1429V89.2857ZM41.2857 89.2857H48.1429V96.1429H41.2857V89.2857ZM41.2857 82.4286H48.1429V89.2857H41.2857V82.4286ZM41.2857 75.5714H48.1429V82.4286H41.2857V75.5714ZM41.2857 68.7143H48.1429V75.5714H41.2857V68.7143ZM41.2857 61.8571H48.1429V68.7143H41.2857V61.8571ZM41.2857 55H48.1429V61.8571H41.2857V55ZM34.4286 82.4286H41.2857V89.2857H34.4286V82.4286ZM34.4286 89.2857H41.2857V96.1429H34.4286V89.2857ZM41.2857 96.1429H48.1429V103H41.2857V96.1429ZM34.4286 96.1429H41.2857V103H34.4286V96.1429ZM27.5714 96.1429H34.4286V103H27.5714V96.1429ZM27.5714 89.2857H34.4286V96.1429H27.5714V89.2857ZM20.7143 96.1429H27.5714V103H20.7143V96.1429ZM13.8571 96.1429H20.7143V103H13.8571V96.1429ZM13.8571 89.2857H20.7143V96.1429H13.8571V89.2857ZM20.7143 89.2857H27.5714V96.1429H20.7143V89.2857ZM20.7143 82.4286H27.5714V89.2857H20.7143V82.4286ZM13.8571 82.4286H20.7143V89.2857H13.8571V82.4286ZM7 89.2857H13.8571V96.1429H7V89.2857ZM7 82.4286H13.8571V89.2857H7V82.4286ZM7 75.5714H13.8571V82.4286H7V75.5714ZM7 68.7143H13.8571V75.5714H7V68.7143ZM7 61.8571H13.8571V68.7143H7V61.8571ZM7 55H13.8571V61.8571H7V55ZM7 48.1429H13.8571V55H7V48.1429ZM13.8571 48.1429H20.7143V55H13.8571V48.1429ZM7 41.2857H13.8571V48.1429H7V41.2857ZM20.7143 48.1429H27.5714V55H20.7143V48.1429ZM13.8571 55H20.7143V61.8571H13.8571V55ZM13.8571 61.8571H20.7143V68.7143H13.8571V61.8571ZM13.8571 68.7143H20.7143V75.5714H13.8571V68.7143ZM13.8571 75.5714H20.7143V82.4286H13.8571V75.5714ZM106.858 48.1429H113.715V55H106.858V48.1429ZM100.001 48.1429H106.858V55H100.001V48.1429ZM100.001 41.2857H106.858V48.1429H100.001V41.2857ZM106.858 41.2857H113.715V48.1429H106.858V41.2857ZM100.001 34.4286H106.858V41.2857H100.001V34.4286ZM93.1436 34.4286H100.001V41.2857H93.1436V34.4286ZM93.1436 41.2857H100.001V48.1429H93.1436V41.2857ZM86.2864 41.2857H93.1436V48.1429H86.2864V41.2857ZM79.4293 41.2857H86.2864V48.1429H79.4293V41.2857ZM79.4293 34.4286H86.2864V41.2857H79.4293V34.4286ZM72.5721 34.4286H79.4293V41.2857H72.5721V34.4286ZM86.2864 34.4286H93.1436V41.2857H86.2864V34.4286ZM72.5721 41.2857H79.4293V48.1429H72.5721V41.2857ZM65.715 41.2857H72.5721V48.1429H65.715V41.2857ZM65.715 48.1429H72.5721V55H65.715V48.1429ZM72.5721 48.1429H79.4293V55H72.5721V48.1429ZM72.5721 55H79.4293V61.8571H72.5721V55ZM72.5721 61.8571H79.4293V68.7143H72.5721V61.8571ZM65.715 61.8571H72.5721V68.7143H65.715V61.8571ZM65.715 55H72.5721V61.8571H65.715V55ZM72.5721 68.7143H79.4293V75.5714H72.5721V68.7143ZM79.4293 68.7143H86.2864V75.5714H79.4293V68.7143ZM79.4293 61.8571H86.2864V68.7143H79.4293V61.8571ZM86.2864 61.8571H93.1436V68.7143H86.2864V61.8571ZM93.1436 61.8571H100.001V68.7143H93.1436V61.8571ZM100.001 61.8571H106.858V68.7143H100.001V61.8571ZM100.001 68.7143H106.858V75.5714H100.001V68.7143ZM93.1436 68.7143H100.001V75.5714H93.1436V68.7143ZM86.2864 68.7143H93.1436V75.5714H86.2864V68.7143ZM106.858 68.7143H113.715V75.5714H106.858V68.7143ZM106.858 75.5714H113.715V82.4286H106.858V75.5714ZM100.001 75.5714H106.858V82.4286H100.001V75.5714ZM93.1436 89.2857H100.001V96.1429H93.1436V89.2857ZM100.001 89.2857H106.858V96.1429H100.001V89.2857ZM100.001 82.4286H106.858V89.2857H100.001V82.4286ZM106.858 82.4286H113.715V89.2857H106.858V82.4286ZM106.858 89.2857H113.715V96.1429H106.858V89.2857ZM100.001 96.1429H106.858V103H100.001V96.1429ZM93.1436 96.1429H100.001V103H93.1436V96.1429ZM86.2864 96.1429H93.1436V103H86.2864V96.1429ZM79.4293 96.1429H86.2864V103H79.4293V96.1429ZM72.5721 96.1429H79.4293V103H72.5721V96.1429ZM72.5721 89.2857H79.4293V96.1429H72.5721V89.2857ZM79.4293 89.2857H86.2864V96.1429H79.4293V89.2857ZM86.2864 89.2857H93.1436V96.1429H86.2864V89.2857ZM65.715 89.2857H72.5721V96.1429H65.715V89.2857ZM65.715 82.4286H72.5721V89.2857H65.715V82.4286ZM72.5721 82.4286H79.4293V89.2857H72.5721V82.4286ZM124.43 34.4286H131.287V41.2857H124.43V34.4286ZM131.287 34.4286H138.144V41.2857H131.287V34.4286ZM131.287 41.2857H138.144V48.1429H131.287V41.2857ZM131.287 48.1429H138.144V55H131.287V48.1429ZM131.287 55H138.144V61.8571H131.287V55ZM131.287 61.8571H138.144V68.7143H131.287V61.8571ZM131.287 68.7143H138.144V75.5714H131.287V68.7143ZM124.43 68.7143H131.287V75.5714H124.43V68.7143ZM124.43 75.5714H131.287V82.4286H124.43V75.5714ZM124.43 82.4286H131.287V89.2857H124.43V82.4286ZM124.43 89.2857H131.287V96.1429H124.43V89.2857ZM124.43 96.1429H131.287V103H124.43V96.1429ZM131.287 96.1429H138.144V103H131.287V96.1429ZM131.287 89.2857H138.144V96.1429H131.287V89.2857ZM131.287 82.4286H138.144V89.2857H131.287V82.4286ZM131.287 75.5714H138.144V82.4286H131.287V75.5714ZM124.43 61.8571H131.287V68.7143H124.43V61.8571ZM124.43 55H131.287V61.8571H124.43V55ZM124.43 48.1429H131.287V55H124.43V48.1429ZM124.43 41.2857H131.287V48.1429H124.43V41.2857ZM162.609 48.1429H169.466V55H162.609V48.1429ZM155.752 48.1429H162.609V55H155.752V48.1429ZM155.752 55H162.609V61.8571H155.752V55ZM162.609 55H169.466V61.8571H162.609V55ZM169.466 48.1429H176.324V55H169.466V48.1429ZM176.324 48.1429H183.181V55H176.324V48.1429ZM183.181 48.1429H190.038V55H183.181V48.1429ZM183.181 55H190.038V61.8571H183.181V55ZM176.324 55H183.181V61.8571H176.324V55ZM190.038 55H196.895V61.8571H190.038V55ZM190.038 61.8571H196.895V68.7143H190.038V61.8571ZM190.038 89.2857H196.895V96.1429H190.038V89.2857ZM183.181 89.2857H190.038V96.1429H183.181V89.2857ZM183.181 61.8571H190.038V68.7143H183.181V61.8571ZM176.324 89.2857H183.181V96.1429H176.324V89.2857ZM183.181 96.1429H190.038V103H183.181V96.1429ZM176.324 96.1429H183.181V103H176.324V96.1429ZM169.466 96.1429H176.324V103H169.466V96.1429ZM162.609 96.1429H169.466V103H162.609V96.1429ZM155.752 96.1429H162.609V103H155.752V96.1429ZM155.752 89.2857H162.609V96.1429H155.752V89.2857ZM162.609 89.2857H169.466V96.1429H162.609V89.2857ZM155.752 82.4286H162.609V89.2857H155.752V82.4286ZM148.895 89.2857H155.752V96.1429H148.895V89.2857ZM148.895 82.4286H155.752V89.2857H148.895V82.4286ZM148.895 75.5714H155.752V82.4286H148.895V75.5714ZM148.895 68.7143H155.752V75.5714H148.895V68.7143ZM148.895 61.8571H155.752V68.7143H148.895V61.8571ZM148.895 55H155.752V61.8571H148.895V55ZM155.752 61.8571H162.609V68.7143H155.752V61.8571ZM155.752 68.7143H162.609V75.5714H155.752V68.7143ZM155.752 75.5714H162.609V82.4286H155.752V75.5714ZM169.466 89.2857H176.324V96.1429H169.466V89.2857ZM169.466 55H176.324V61.8571H169.466V55ZM183.181 68.7143H190.038V75.5714H183.181V68.7143ZM190.038 68.7143H196.895V75.5714H190.038V68.7143ZM162.609 75.5714H169.466V82.4286H162.609V75.5714ZM169.466 75.5714H176.324V82.4286H169.466V75.5714ZM176.324 75.5714H183.181V82.4286H176.324V75.5714ZM183.181 75.5714H190.038V82.4286H183.181V75.5714ZM190.038 75.5714H196.895V82.4286H190.038V75.5714ZM176.324 68.7143H183.181V75.5714H176.324V68.7143ZM169.466 68.7143H176.324V75.5714H169.466V68.7143ZM162.609 68.7143H169.466V75.5714H162.609V68.7143Z" fill="#FFB0A3"/>
</svg>
